<svg width="512" height="512" viewBox="0 0 512 512" fill="none" xmlns="http://www.w3.org/2000/svg">
<rect width="512" height="512" rx="96" fill="white"/>
<path d="M220.868 211.2C234.681 211.2 245.321 214.653 252.788 221.56C260.254 228.28 265.201 237.427 267.628 249L263.148 247.6L265.108 243.12C267.534 238.267 271.174 233.413 276.028 228.56C281.068 223.52 287.041 219.413 293.948 216.24C300.854 212.88 308.228 211.2 316.068 211.2C328.948 211.2 338.934 214 346.028 219.6C353.121 225.013 358.068 232.387 360.868 241.72C363.668 250.867 365.068 261.133 365.068 272.52V346.72C365.068 350.827 363.761 354.28 361.148 357.08C358.534 359.693 355.174 361 351.068 361C347.148 361 343.788 359.693 340.988 357.08C338.374 354.28 337.068 350.827 337.068 346.72V272.8C337.068 266.267 336.134 260.293 334.268 254.88C332.588 249.467 329.508 245.173 325.028 242C320.734 238.64 314.761 236.96 307.108 236.96C299.828 236.96 293.294 238.64 287.508 242C281.908 245.173 277.521 249.467 274.348 254.88C271.174 260.293 269.588 266.267 269.588 272.8V346.72C269.588 350.827 268.281 354.28 265.668 357.08C263.054 359.693 259.694 361 255.588 361C251.481 361 248.121 359.693 245.508 357.08C242.894 354.28 241.588 350.827 241.588 346.72V272.52C241.588 265.987 240.654 260.013 238.788 254.6C237.108 249.187 234.121 244.893 229.828 241.72C225.534 238.547 219.561 236.96 211.908 236.96C204.628 236.96 198.188 238.547 192.588 241.72C186.988 244.893 182.601 249.187 179.428 254.6C176.441 260.013 174.948 265.987 174.948 272.52V346.72C174.948 350.827 173.548 354.28 170.748 357.08C168.134 359.693 164.868 361 160.948 361C156.841 361 153.481 359.693 150.868 357.08C148.254 354.28 146.948 350.827 146.948 346.72V228C146.948 223.893 148.254 220.533 150.868 217.92C153.481 215.12 156.841 213.72 160.948 213.72C164.868 213.72 168.134 215.12 170.748 217.92C173.548 220.533 174.948 223.893 174.948 228V244.52L169.628 247.6C170.934 243.493 173.081 239.293 176.068 235C179.054 230.707 182.788 226.787 187.268 223.24C191.934 219.693 197.068 216.8 202.668 214.56C208.268 212.32 214.334 211.2 220.868 211.2Z" fill="#454950"/>
</svg>
